STARTFONT 2.1
COMMENT
COMMENT Converted from OpenType font "FiraCode-Bold.otf" by "otf2bdf 3.0".
COMMENT
FONT -FreeType-Fira Code-Bold-R-Normal--100-720-100-100-P-472-ISO10646-1
SIZE 72 100 100
FONTBOUNDINGBOX 61 76 0 -3
STARTPROPERTIES 19
FOUNDRY "FreeType"
FAMILY_NAME "Fira Code"
WEIGHT_NAME "Bold"
SLANT "R"
SETWIDTH_NAME "Normal"
ADD_STYLE_NAME ""
PIXEL_SIZE 100
POINT_SIZE 720
RESOLUTION_X 100
RESOLUTION_Y 100
SPACING "P"
AVERAGE_WIDTH 472
CHARSET_REGISTRY "ISO10646"
CHARSET_ENCODING "1"
FONT_ASCENT 92
FONT_DESCENT 30
COPYRIGHT "Copyright 2012-2015 The Fira Code Project Authors (https://github.com/tonsky/FiraCode)"
_OTF_FONTFILE "FiraCode-Bold.otf"
_OTF_PSNAME "FiraCode-Bold"
ENDPROPERTIES
CHARS 14
STARTCHAR 0020
ENCODING 32
SWIDTH 620 0
DWIDTH 62 0
BBX 0 0 0 0
BITMAP
ENDCHAR
STARTCHAR 0025
ENCODING 37
SWIDTH 620 0
DWIDTH 62 0
BBX 61 76 0 -3
BITMAP
001FE000001C0000
00FFFC00001F0000
01FFFE00003FE000
07FFFF80003FF000
0FFFFFC0007FF000
0FFFFFC0007FE000
1FFFFFE000FFE000
3FFFFFF000FFC000
3FF87FF001FFC000
7FF03FF801FF8000
7FF03FF803FF8000
7FE01FF803FF0000
7FE01FF807FF0000
FFE01FF807FE0000
FFE01FFC0FFE0000
FFE01FFC0FFC0000
FFE01FFC1FFC0000
FFE01FFC1FF80000
FFE01FF83FF80000
7FE01FF83FF00000
7FE01FF83FF00000
7FF01FF87FE00000
7FF03FF87FE00000
3FF87FF0FFC00000
3FFFFFF0FFC00000
3FFFFFE1FFC00000
1FFFFFE1FF800000
0FFFFFC3FF800000
07FFFF83FF000000
03FFFF07FF000000
00FFFC07FE000000
003FF00FFE000000
0000000FFC000000
0000001FFC000000
0000001FF8000000
0000003FF8000000
0000003FF0000000
0000007FF0000000
0000007FE0000000
000000FFE0000000
000000FFC0000000
000001FFC0000000
000001FF807FF000
000001FF81FFFC00
000003FF07FFFF00
000003FF0FFFFF80
000007FE1FFFFFC0
000007FE1FFFFFC0
00000FFC3FFFFFE0
00000FFC7FFDFFE0
00001FF87FF07FF0
00001FF87FE03FF0
00003FF8FFE03FF8
00003FF0FFE03FF8
00007FF0FFE03FF8
00007FE0FFC01FF8
0000FFE0FFC01FF8
0000FFC0FFC01FF8
0001FFC0FFC01FF8
0001FF80FFC01FF8
0003FF80FFE03FF8
0003FF00FFE03FF8
0007FF00FFE03FF8
0007FE007FE03FF0
000FFE007FF07FF0
000FFC007FF8FFF0
001FFC003FFFFFE0
001FF8003FFFFFE0
001FF8001FFFFFC0
003FF0000FFFFF80
003FF00007FFFF00
007FE00003FFFE00
007FE00000FFF800
001FC00000070000
0003C00000000000
0000800000000000
ENDCHAR
STARTCHAR 002E
ENCODING 46
SWIDTH 620 0
DWIDTH 62 0
BBX 23 23 19 -2
BITMAP
00FE00
03FFC0
0FFFE0
1FFFF0
1FFFF8
3FFFFC
7FFFFC
7FFFFE
7FFFFE
FFFFFE
FFFFFE
FFFFFE
FFFFFE
7FFFFE
7FFFFE
7FFFFC
3FFFFC
3FFFF8
1FFFF8
0FFFF0
07FFE0
01FF80
007C00
ENDCHAR
STARTCHAR 0030
ENCODING 48
SWIDTH 620 0
DWIDTH 62 0
BBX 51 75 5 -2
BITMAP
000007FC000000
00007FFFC00000
0001FFFFF80000
0007FFFFFC0000
000FFFFFFF0000
003FFFFFFF8000
007FFFFFFFC000
00FFFFFFFFE000
00FFFFFFFFF000
01FFFFFFFFF800
03FFFFFFFFF800
07FFFFFFFFFC00
07FFFC03FFFC00
0FFFF800FFFE00
0FFFF0007FFE00
0FFFE0007FFF00
1FFFC0007FFF00
1FFFC000FFFF80
3FFF8000FFFF80
3FFF8001FFFF80
3FFF8001FFFFC0
3FFF8003FFFFC0
7FFF0003FFFFC0
7FFF0007FFFFC0
7FFF0007FFFFC0
7FFF000FFFFFE0
7FFF000FFFFFE0
7FFF001FFFFFE0
FFFF001FEFFFE0
FFFF003FEFFFE0
FFFE003FCFFFE0
FFFE003FCFFFE0
FFFE007F8FFFE0
FFFE007F8FFFE0
FFFE00FF0FFFE0
FFFE00FF0FFFE0
FFFE01FE0FFFE0
FFFE01FE0FFFE0
FFFE03FC0FFFE0
FFFE03FC0FFFE0
FFFE07F80FFFE0
FFFE07F80FFFE0
FFFE0FF80FFFE0
FFFE0FF00FFFE0
FFFE1FF00FFFE0
FFFE1FE00FFFE0
7FFE3FE00FFFE0
7FFF3FC00FFFE0
7FFF7FC00FFFE0
7FFF7F801FFFE0
7FFFFF801FFFC0
7FFFFF001FFFC0
3FFFFF001FFFC0
3FFFFE001FFFC0
3FFFFE001FFF80
3FFFFC003FFF80
1FFFFC003FFF80
1FFFF8003FFF80
1FFFF8007FFF00
0FFFF000FFFF00
0FFFF000FFFE00
07FFF001FFFE00
07FFFC07FFFC00
03FFFFFFFFFC00
03FFFFFFFFF800
01FFFFFFFFF800
00FFFFFFFFF000
007FFFFFFFE000
007FFFFFFFC000
001FFFFFFF8000
000FFFFFFF0000
0007FFFFFC0000
0001FFFFF00000
00003FFFC00000
000003F8000000
ENDCHAR
STARTCHAR 0031
ENCODING 49
SWIDTH 620 0
DWIDTH 62 0
BBX 51 71 6 0
BITMAP
000003FFF80000
00000FFFF80000
00001FFFF80000
00007FFFF80000
0001FFFFF80000
0003FFFFF80000
000FFFFFF80000
003FFFFFF80000
007FFFFFF80000
01FFFFFFF80000
07FFFFFFF80000
0FFFFFFFF80000
3FFFFFFFF80000
7FFFFFFFF80000
FFFFFFFFF80000
7FFFFFFFF80000
3FFFF7FFF80000
3FFFE7FFF80000
1FFF87FFF80000
1FFF07FFF80000
0FFC07FFF80000
07F007FFF80000
07E007FFF80000
038007FFF80000
030007FFF80000
000007FFF80000
000007FFF80000
000007FFF80000
000007FFF80000
000007FFF80000
000007FFF80000
000007FFF80000
000007FFF80000
000007FFF80000
000007FFF80000
000007FFF80000
000007FFF80000
000007FFF80000
000007FFF80000
000007FFF80000
000007FFF80000
000007FFF80000
000007FFF80000
000007FFF80000
000007FFF80000
000007FFF80000
000007FFF80000
000007FFF80000
000007FFF80000
000007FFF80000
000007FFF80000
000007FFF80000
000007FFF80000
000007FFF80000
000007FFF80000
000007FFF80000
000007FFF80000
000007FFF80000
000007FFF80000
0FFFFFFFFFFFE0
0FFFFFFFFFFFE0
0FFFFFFFFFFFE0
0FFFFFFFFFFFE0
0FFFFFFFFFFFE0
0FFFFFFFFFFFE0
0FFFFFFFFFFFE0
0FFFFFFFFFFFE0
0FFFFFFFFFFFE0
0FFFFFFFFFFFE0
0FFFFFFFFFFFE0
0FFFFFFFFFFFE0
ENDCHAR
STARTCHAR 0032
ENCODING 50
SWIDTH 620 0
DWIDTH 62 0
BBX 50 73 4 0
BITMAP
00001FF8000000
0001FFFFC00000
000FFFFFF80000
003FFFFFFE0000
00FFFFFFFF0000
01FFFFFFFFC000
07FFFFFFFFE000
0FFFFFFFFFF000
1FFFFFFFFFF800
3FFFFFFFFFF800
7FFFFFFFFFFC00
7FFFFFFFFFFE00
FFFFFFFFFFFE00
3FFF801FFFFF00
1FFE0007FFFF00
0FFC0003FFFF00
03F80001FFFF00
01F00001FFFF80
00E00000FFFF80
00000000FFFF80
00000000FFFF80
00000000FFFF80
00000000FFFF80
00000000FFFF80
00000000FFFF00
00000000FFFF00
00000000FFFF00
00000001FFFF00
00000001FFFE00
00000003FFFE00
00000003FFFE00
00000007FFFC00
0000000FFFFC00
0000000FFFF800
0000001FFFF800
0000003FFFF000
0000003FFFE000
0000007FFFE000
000000FFFFC000
000001FFFF8000
000003FFFF0000
000007FFFF0000
00000FFFFE0000
00001FFFFC0000
00003FFFF80000
00003FFFF00000
00007FFFE00000
0000FFFFC00000
0001FFFF800000
0003FFFF000000
0007FFFE000000
000FFFFC000000
001FFFF8000000
003FFFF0000000
007FFFE0000000
00FFFFC0000000
01FFFF80000000
03FFFF00000000
07FFFC00000000
0FFFF800000000
3FFFF000000000
7FFFFFFFFFFFC0
7FFFFFFFFFFFC0
7FFFFFFFFFFFC0
7FFFFFFFFFFFC0
7FFFFFFFFFFFC0
7FFFFFFFFFFFC0
7FFFFFFFFFFF80
7FFFFFFFFFFF80
7FFFFFFFFFFF80
7FFFFFFFFFFF80
7FFFFFFFFFFF80
7FFFFFFFFFFF80
ENDCHAR
STARTCHAR 0033
ENCODING 51
SWIDTH 620 0
DWIDTH 62 0
BBX 52 75 2 -2
BITMAP
000007FE000000
0000FFFFF00000
0007FFFFFE0000
003FFFFFFF8000
00FFFFFFFFC000
01FFFFFFFFF000
07FFFFFFFFF800
0FFFFFFFFFFC00
1FFFFFFFFFFE00
3FFFFFFFFFFE00
3FFFFFFFFFFF00
1FFFFFFFFFFF80
0FFFF81FFFFF80
07FF8003FFFF80
03FE0000FFFFC0
01F800007FFFC0
00F000007FFFC0
006000003FFFC0
000000003FFFC0
000000003FFFC0
000000003FFFC0
000000003FFFC0
000000003FFFC0
000000003FFF80
000000003FFF80
000000007FFF80
000000007FFF00
00000000FFFF00
00000003FFFE00
0000000FFFFC00
00001FFFFFF800
00001FFFFFF000
00001FFFFFC000
00001FFFFF0000
00003FFFFC0000
00003FFFF00000
00003FFFFF8000
00003FFFFFE000
00003FFFFFF800
00003FFFFFFE00
00007FFFFFFF00
0000001FFFFF80
00000001FFFF80
00000000FFFFC0
000000007FFFE0
000000003FFFE0
000000001FFFE0
000000001FFFF0
000000001FFFF0
000000000FFFF0
000000000FFFF0
000000000FFFF0
000000000FFFF0
000000000FFFF0
000000001FFFF0
000000001FFFF0
00C000001FFFF0
01E000003FFFF0
03F000007FFFF0
07F800007FFFE0
0FFE0001FFFFE0
1FFFC007FFFFC0
3FFFFFFFFFFFC0
FFFFFFFFFFFF80
FFFFFFFFFFFF80
7FFFFFFFFFFF00
3FFFFFFFFFFE00
1FFFFFFFFFFC00
07FFFFFFFFF800
03FFFFFFFFF000
00FFFFFFFFC000
003FFFFFFF0000
000FFFFFFC0000
0001FFFFE00000
00000FF0000000
ENDCHAR
STARTCHAR 0034
ENCODING 52
SWIDTH 620 0
DWIDTH 62 0
BBX 52 73 5 0
BITMAP
00001000000000
00001E00000000
00003FC0000000
00003FF0000000
00007FFE000000
00007FFF800000
00007FFF800000
0000FFFF000000
0000FFFF000000
0001FFFE000000
0001FFFE000000
0001FFFC000000
0003FFFC000000
0003FFFC000000
0007FFF8000000
0007FFF8000000
000FFFF0000000
000FFFF0000000
000FFFF0000000
001FFFE0000000
001FFFE0000000
003FFFC0000000
003FFFC0000000
003FFFC0000000
007FFF80000000
007FFF80000000
00FFFF00000000
00FFFF00000000
01FFFE00000000
01FFFE01FFF800
01FFFE01FFF800
03FFFC01FFF800
03FFFC01FFF800
07FFF803FFF800
07FFF803FFF800
07FFF803FFF800
0FFFF003FFF800
0FFFF003FFF800
1FFFE003FFF800
1FFFE003FFF800
3FFFE003FFF800
3FFFC003FFF800
3FFFC007FFF800
7FFF8007FFF800
7FFF8007FFF800
FFFF0007FFF800
FFFFFFFFFFFFF0
FFFFFFFFFFFFF0
FFFFFFFFFFFFF0
FFFFFFFFFFFFF0
FFFFFFFFFFFFF0
FFFFFFFFFFFFF0
FFFFFFFFFFFFF0
FFFFFFFFFFFFF0
FFFFFFFFFFFFF0
FFFFFFFFFFFFF0
FFFFFFFFFFFFF0
FFFFFFFFFFFFF0
00000007FFF800
00000007FFF800
00000007FFF800
00000007FFF800
00000007FFF800
00000007FFF800
00000007FFF800
00000007FFF800
00000007FFF800
00000007FFF800
00000007FFF800
00000007FFF800
00000007FFF800
00000007FFF800
00000007FFF800
ENDCHAR
STARTCHAR 0035
ENCODING 53
SWIDTH 620 0
DWIDTH 62 0
BBX 51 73 4 -2
BITMAP
03FFFFFFFFFF80
03FFFFFFFFFF80
03FFFFFFFFFF00
03FFFFFFFFFF00
03FFFFFFFFFF00
03FFFFFFFFFF00
03FFFFFFFFFF00
03FFFFFFFFFF00
03FFFFFFFFFE00
03FFFFFFFFFE00
03FFFFFFFFFE00
03FFFFFFFFFE00
03FFF800000000
03FFF800000000
03FFF800000000
03FFF800000000
03FFF800000000
03FFF800000000
03FFF800000000
03FFF800000000
03FFF800000000
03FFF800000000
03FFF800000000
03FFF800000000
03FFF800000000
03FFF87FF80000
03FFFBFFFF0000
03FFFFFFFFC000
03FFFFFFFFE000
03FFFFFFFFF000
03FFFFFFFFF800
03FFFFFFFFFC00
03FFFFFFFFFE00
03FFFFFFFFFF00
03FFFFFFFFFF00
03FFFFFFFFFF80
03FFF007FFFF80
03FFC001FFFFC0
00000000FFFFC0
000000007FFFC0
000000007FFFE0
000000003FFFE0
000000003FFFE0
000000003FFFE0
000000001FFFE0
000000001FFFE0
000000001FFFE0
000000001FFFE0
000000001FFFE0
000000001FFFE0
000000001FFFE0
000000003FFFE0
000000003FFFE0
000000003FFFE0
00C000007FFFE0
01E00000FFFFC0
03F00000FFFFC0
07F80001FFFFC0
0FFE0007FFFF80
1FFF801FFFFF80
3FFFFFFFFFFF00
7FFFFFFFFFFE00
FFFFFFFFFFFE00
7FFFFFFFFFFC00
3FFFFFFFFFF800
1FFFFFFFFFF000
0FFFFFFFFFE000
03FFFFFFFF8000
01FFFFFFFF0000
007FFFFFFC0000
001FFFFFF00000
0003FFFF800000
00001FE0000000
ENDCHAR
STARTCHAR 0036
ENCODING 54
SWIDTH 620 0
DWIDTH 62 0
BBX 52 75 5 -2
BITMAP
0000003FF00000
000003FFFF0000
00001FFFFFC000
00007FFFFFF000
0000FFFFFFFC00
0003FFFFFFFC00
0007FFFFFFF800
000FFFFFFFF800
001FFFFFFFF000
003FFFFFFFE000
007FFFFFFFE000
00FFFFFFFFC000
00FFFFE00FC000
01FFFF80018000
03FFFF00000000
03FFFE00000000
07FFFC00000000
07FFF800000000
0FFFF000000000
0FFFF000000000
1FFFE000000000
1FFFE000000000
1FFFE000000000
3FFFC000000000
3FFFC000000000
3FFFC001800000
3FFFC07FFE0000
7FFF81FFFF8000
7FFF87FFFFE000
7FFF8FFFFFF000
7FFFBFFFFFF800
7FFFFFFFFFFC00
7FFFFFFFFFFE00
FFFFFFFFFFFF00
FFFFFFFFFFFF00
FFFFFFFFFFFF80
FFFFFFFFFFFF80
FFFFFE01FFFFC0
FFFFF8007FFFC0
FFFFF0007FFFC0
FFFFC0003FFFE0
FFFF80003FFFE0
FFFF80001FFFE0
FFFF80001FFFE0
FFFF80001FFFF0
FFFF80001FFFF0
FFFF80001FFFF0
FFFF80000FFFF0
7FFF80000FFFF0
7FFF80000FFFF0
7FFF80000FFFF0
7FFFC0000FFFF0
7FFFC0001FFFF0
7FFFC0001FFFE0
3FFFC0001FFFE0
3FFFC0001FFFE0
3FFFE0001FFFE0
1FFFE0003FFFE0
1FFFF0003FFFC0
1FFFF0007FFFC0
0FFFF8007FFF80
0FFFFC00FFFF80
07FFFE03FFFF00
07FFFFFFFFFF00
03FFFFFFFFFE00
01FFFFFFFFFC00
00FFFFFFFFFC00
007FFFFFFFF800
003FFFFFFFF000
001FFFFFFFE000
000FFFFFFF8000
0003FFFFFF0000
0001FFFFFC0000
00003FFFE00000
000001FC000000
ENDCHAR
STARTCHAR 0037
ENCODING 55
SWIDTH 620 0
DWIDTH 62 0
BBX 48 72 7 -2
BITMAP
FFFFFFFFFFFF
FFFFFFFFFFFF
FFFFFFFFFFFF
FFFFFFFFFFFF
FFFFFFFFFFFF
FFFFFFFFFFFF
FFFFFFFFFFFF
FFFFFFFFFFFF
FFFFFFFFFFFF
FFFFFFFFFFFF
FFFFFFFFFFFF
FFFFFFFFFFFE
00000001FFFE
00000001FFFC
00000003FFFC
00000003FFFC
00000007FFF8
00000007FFF8
0000000FFFF0
0000000FFFF0
0000001FFFE0
0000001FFFE0
0000003FFFC0
0000003FFFC0
0000007FFFC0
0000007FFF80
000000FFFF80
000000FFFF00
000001FFFF00
000001FFFE00
000003FFFE00
000003FFFC00
000003FFFC00
000007FFFC00
000007FFF800
00000FFFF800
00000FFFF000
00001FFFF000
00001FFFE000
00003FFFE000
00003FFFC000
00007FFFC000
00007FFFC000
0000FFFF8000
0000FFFF8000
0001FFFF0000
0001FFFF0000
0003FFFE0000
0003FFFE0000
0007FFFC0000
0007FFFC0000
000FFFFC0000
000FFFF80000
000FFFF80000
001FFFF00000
001FFFF00000
003FFFE00000
003FFFE00000
007FFFC00000
007FFFC00000
00FFFF800000
00FFFF800000
01FFFF800000
01FFFF000000
03FFFF000000
03FFFE000000
07FFFE000000
07FFFC000000
01FFFC000000
003FF8000000
0007F8000000
0000F8000000
ENDCHAR
STARTCHAR 0038
ENCODING 56
SWIDTH 620 0
DWIDTH 62 0
BBX 53 75 4 -2
BITMAP
000003FF000000
00007FFFF80000
0001FFFFFE0000
0007FFFFFF8000
001FFFFFFFE000
003FFFFFFFF000
007FFFFFFFF800
00FFFFFFFFFC00
01FFFFFFFFFE00
03FFFFFFFFFF00
07FFFFFFFFFF00
07FFFF07FFFF80
0FFFFC00FFFF80
0FFFF8007FFFC0
0FFFF0003FFFC0
0FFFE0003FFFC0
1FFFE0003FFFC0
1FFFE0001FFFC0
1FFFE0001FFFC0
1FFFE0001FFFC0
1FFFE0001FFFC0
1FFFE0001FFFC0
1FFFE0001FFFC0
1FFFE0003FFFC0
0FFFF0003FFF80
0FFFF8003FFF80
0FFFFC007FFF00
07FFFE00FFFF00
07FFFF81FFFE00
03FFFFE3FFFC00
03FFFFFFFFF800
01FFFFFFFFF000
00FFFFFFFFC000
007FFFFFFF8000
001FFFFFFF0000
000FFFFFFF8000
0007FFFFFFE000
001FFFFFFFF800
007FFFFFFFFC00
00FFFFFFFFFE00
01FFFFFFFFFF00
03FFFC7FFFFF80
07FFF80FFFFFC0
0FFFF003FFFFC0
1FFFE000FFFFE0
1FFFE0007FFFE0
3FFFC0003FFFF0
3FFFC0001FFFF0
7FFF80000FFFF0
7FFF80000FFFF8
7FFF800007FFF8
7FFF800007FFF8
FFFF800007FFF8
FFFF800007FFF8
FFFF800007FFF8
FFFF800007FFF8
FFFF800007FFF8
7FFF80000FFFF8
7FFFC0000FFFF8
7FFFC0001FFFF0
7FFFE0003FFFF0
3FFFF0007FFFF0
3FFFFE01FFFFE0
1FFFFFFFFFFFE0
1FFFFFFFFFFFC0
0FFFFFFFFFFF80
07FFFFFFFFFF00
03FFFFFFFFFE00
01FFFFFFFFFC00
00FFFFFFFFF800
003FFFFFFFF000
001FFFFFFFC000
0007FFFFFF0000
0000FFFFF00000
000001FC000000
ENDCHAR
STARTCHAR 0039
ENCODING 57
SWIDTH 620 0
DWIDTH 62 0
BBX 53 76 4 -3
BITMAP
000003FE000000
00007FFFF00000
0001FFFFFC0000
0007FFFFFF0000
001FFFFFFFC000
003FFFFFFFE000
007FFFFFFFF000
01FFFFFFFFF800
01FFFFFFFFFC00
03FFFFFFFFFE00
07FFFFFFFFFF00
0FFFFFFFFFFF00
0FFFFC03FFFF80
1FFFF800FFFF80
1FFFF0007FFFC0
3FFFE0007FFFC0
3FFFC0003FFFE0
3FFFC0003FFFE0
7FFFC0001FFFE0
7FFF80001FFFF0
7FFF80001FFFF0
7FFF80001FFFF0
7FFF80001FFFF0
7FFF80001FFFF0
FFFF80000FFFF0
FFFF80000FFFF0
FFFF80000FFFF0
FFFF80000FFFF8
7FFF80000FFFF8
7FFF80000FFFF8
7FFF80000FFFF0
7FFFC0000FFFF0
7FFFC0000FFFF0
7FFFE0001FFFF0
3FFFE0003FFFF0
3FFFF000FFFFF0
1FFFFC03FFFFF0
1FFFFFFFFFFFF0
0FFFFFFFFFFFF0
0FFFFFFFFFFFF0
07FFFFFFFFFFE0
03FFFFFFFFFFE0
01FFFFFFFFFFE0
00FFFFFFDFFFE0
007FFFFFBFFFE0
003FFFFE3FFFC0
000FFFF83FFFC0
0001FFE07FFFC0
000000007FFF80
00000000FFFF80
00000001FFFF00
00000001FFFF00
00000003FFFE00
00000007FFFE00
0000000FFFFC00
0000003FFFFC00
0000007FFFF800
000000FFFFF000
000003FFFFE000
00000FFFFFE000
00003FFFFFC000
0000FFFFFF8000
0007FFFFFF0000
003FFFFFFE0000
01FFFFFFF80000
03FFFFFFF00000
03FFFFFFE00000
01FFFFFF800000
01FFFFFE000000
01FFFFF8000000
00FFFFE0000000
00FFFF80000000
00FFFC00000000
00FFE000000000
007F0000000000
00700000000000
ENDCHAR
STARTCHAR 004D
ENCODING 77
SWIDTH 620 0
DWIDTH 62 0
BBX 58 71 2 0
BITMAP
0FFFF8000FFFFC00
0FFFF8000FFFFC00
0FFFFC000FFFFC00
0FFFFC000FFFFC00
0FFFFC000FFFFC00
1FFFFC000FFFFC00
1FFFFC001FFFFC00
1FFFFC001FFFFC00
1FFFFE001FFFFC00
1FFFFE001FFFFC00
1FFFFE001FFFFC00
1FFFFE001FFFFC00
1FFFFE003FFFFC00
1FFFFE003FFFFE00
1FFFFF003FFFFE00
1FFFFF003FFFFE00
1FFFFF003FFFFE00
1FFFFF003FDFFE00
1FFDFF007FDFFE00
1FFDFF007FDFFE00
1FFDFF807FDFFE00
1FFDFF807FDFFE00
1FFDFF807FFFFE00
3FFCFF807FBFFE00
3FFEFF80FFBFFE00
3FFEFF80FFBFFE00
3FFEFFC0FFBFFE00
3FFEFFC0FFBFFE00
3FFEFFC0FFBFFE00
3FFE7FC0FF3FFE00
3FFE7FC1FF3FFE00
3FFE7FE1FF3FFF00
3FFE7FE1FF3FFF00
3FFE7FE1FF3FFF00
3FFE3FE1FE3FFF00
3FFE3FE1FE3FFF00
3FFE3FE3FE3FFF00
3FFE3FF3FE3FFF00
3FFE3FF3FE3FFF00
3FFE1FF3FE3FFF00
7FFE1FF3FC3FFF00
7FFE1FF3FC3FFF00
7FFE1FF3FC3FFF00
7FFE1FFFFC3FFF00
7FFE0FFFFC3FFF00
7FFE0FFFF83FFF00
7FFE0FFFF83FFF00
7FFE0FFFF83FFF00
7FFE0FFFF83FFF00
7FFE07FFF83FFF80
7FFE07FFF83FFF80
7FFE07FFF01FFF80
7FFE07FFF01FFF80
7FFE07FFF01FFF80
7FFC07FFF01FFF80
7FFC03FFF01FFF80
7FFC03FFF01FFF80
7FFC03FFE01FFF80
FFFC03FFE01FFF80
FFFC0000001FFF80
FFFC0000001FFF80
FFFC0000001FFF80
FFFC0000001FFF80
FFFC0000001FFF80
FFFC0000001FFF80
FFFC0000001FFF80
FFFC0000001FFF80
FFFC0000001FFFC0
FFFC0000001FFFC0
FFFC0000001FFFC0
FFFC0000001FFFC0
ENDCHAR
ENDFONT
