STARTFONT 2.1
COMMENT
COMMENT Converted from OpenType font "FiraCode-Bold.otf" by "otf2bdf 3.0".
COMMENT
FONT -FreeType-Fira Code-Bold-R-Normal--33-240-100-100-P-159-ISO10646-1
SIZE 24 100 100
FONTBOUNDINGBOX 20 25 0 -1
STARTPROPERTIES 19
FOUNDRY "FreeType"
FAMILY_NAME "Fira Code"
WEIGHT_NAME "Bold"
SLANT "R"
SETWIDTH_NAME "Normal"
ADD_STYLE_NAME ""
PIXEL_SIZE 33
POINT_SIZE 240
RESOLUTION_X 100
RESOLUTION_Y 100
SPACING "P"
AVERAGE_WIDTH 159
CHARSET_REGISTRY "ISO10646"
CHARSET_ENCODING "1"
FONT_ASCENT 30
FONT_DESCENT 10
COPYRIGHT "Copyright 2012-2015 The Fira Code Project Authors (https://github.com/tonsky/FiraCode)"
_OTF_FONTFILE "FiraCode-Bold.otf"
_OTF_PSNAME "FiraCode-Bold"
ENDPROPERTIES
CHARS 14
STARTCHAR 0020
ENCODING 32
SWIDTH 630 0
DWIDTH 21 0
BBX 0 0 0 0
BITMAP
ENDCHAR
STARTCHAR 0025
ENCODING 37
SWIDTH 630 0
DWIDTH 21 0
BBX 20 25 0 -1
BITMAP
3F0380
7F8380
7B8780
F3C700
F3CF00
F3CE00
F3DE00
739C00
7FBC00
3F3800
007800
007000
00F000
00E000
01EFE0
01CFE0
03DEF0
039C70
079C70
071C70
0F1C70
0E1EF0
1E0FE0
1C07C0
040000
ENDCHAR
STARTCHAR 002E
ENCODING 46
SWIDTH 630 0
DWIDTH 21 0
BBX 8 8 6 -1
BITMAP
3C
7E
7F
FF
FF
7F
3E
08
ENDCHAR
STARTCHAR 0030
ENCODING 48
SWIDTH 630 0
DWIDTH 21 0
BBX 17 25 2 -1
BITMAP
07F000
1FF800
3FFC00
7FFE00
7C1E00
7C3F00
F83F00
F87F00
F87F80
F8EF80
F8EF80
F8CF80
F9CF80
F98F80
FB8F80
FB0F80
FF1F00
FE1F00
FE1F00
7C3F00
7E7E00
3FFC00
1FFC00
0FF000
018000
ENDCHAR
STARTCHAR 0031
ENCODING 49
SWIDTH 630 0
DWIDTH 21 0
BBX 17 24 2 0
BITMAP
01F000
03F000
0FF000
3FF000
7FF000
FFF000
7DF000
31F000
21F000
01F000
01F000
01F000
01F000
01F000
01F000
01F000
01F000
01F000
01F000
01F000
7FFF80
7FFF80
7FFF80
7FFF80
ENDCHAR
STARTCHAR 0032
ENCODING 50
SWIDTH 630 0
DWIDTH 21 0
BBX 16 24 2 0
BITMAP
1FE0
3FF8
FFFC
FFFE
F07E
203F
003F
003F
003E
007E
007E
00FC
01F8
03F8
07F0
07E0
0FC0
1F80
7F00
FC00
FFFF
FFFF
FFFF
FFFF
ENDCHAR
STARTCHAR 0033
ENCODING 51
SWIDTH 630 0
DWIDTH 21 0
BBX 17 25 1 -1
BITMAP
0FF000
3FFC00
7FFE00
7FFF00
383F00
001F00
001F00
001F00
001F00
007E00
03FC00
03F000
03FE00
00FF00
001F80
001F80
000F80
000F80
201F80
703F80
FFFF00
FFFF00
7FFE00
1FF800
018000
ENDCHAR
STARTCHAR 0034
ENCODING 52
SWIDTH 630 0
DWIDTH 21 0
BBX 17 24 2 0
BITMAP
030000
07E000
07C000
07C000
0F8000
0F8000
1F8000
1F0000
3F0000
3E3E00
3E3E00
7E3E00
7C3E00
FC7E00
F87E00
FFFF80
FFFF80
FFFF80
FFFF80
007E00
007E00
007E00
007E00
007E00
ENDCHAR
STARTCHAR 0035
ENCODING 53
SWIDTH 630 0
DWIDTH 21 0
BBX 16 25 2 -1
BITMAP
7FFF
7FFE
7FFE
7FFE
7C00
7C00
7C00
7C00
7C00
7FF8
7FFC
7FFE
7C7F
003F
001F
001F
001F
001F
203F
703F
FFFE
FFFE
7FFC
3FF0
0300
ENDCHAR
STARTCHAR 0036
ENCODING 54
SWIDTH 630 0
DWIDTH 21 0
BBX 17 25 2 -1
BITMAP
03FC00
0FFE00
1FFC00
3FFC00
3F0000
7E0000
7C0000
FC0000
FCF000
FBFC00
FFFE00
FFFF00
FE1F00
F81F80
F81F80
F81F80
F80F80
FC1F80
FC1F80
7C1F00
7F7F00
3FFE00
1FFC00
0FF800
00C000
ENDCHAR
STARTCHAR 0037
ENCODING 55
SWIDTH 630 0
DWIDTH 21 0
BBX 16 24 2 -1
BITMAP
FFFF
FFFF
FFFF
FFFF
001F
003F
003E
007E
007C
00FC
00F8
01F8
01F0
03F0
03E0
07E0
07E0
0FC0
0FC0
0F80
1F80
1F00
3F00
0E00
ENDCHAR
STARTCHAR 0038
ENCODING 56
SWIDTH 630 0
DWIDTH 21 0
BBX 18 25 1 -1
BITMAP
07F800
0FFE00
1FFF00
3FBF80
3E1F80
7E0F80
7E0F80
7E0F80
3F1F00
3FBF00
1FFC00
0FFC00
1FFF00
3F7F80
7E1F80
7C0FC0
7C0FC0
FC07C0
FC07C0
7C0FC0
7F1F80
3FFF80
1FFF00
0FFC00
00E000
ENDCHAR
STARTCHAR 0039
ENCODING 57
SWIDTH 630 0
DWIDTH 21 0
BBX 18 25 1 -1
BITMAP
07F800
0FFE00
1FFF00
3FFF00
7E1F80
7C0F80
7C0FC0
7C0FC0
FC0FC0
7C0FC0
7C0FC0
7E1FC0
7FFFC0
3FFF80
1FEF80
079F80
001F00
003F00
007E00
01FE00
07FC00
3FF000
1FE000
1F8000
1C0000
ENDCHAR
STARTCHAR 004D
ENCODING 77
SWIDTH 630 0
DWIDTH 21 0
BBX 19 24 1 0
BITMAP
7E0FC0
7E0FC0
7E1FC0
7E1FC0
7E1FC0
7F1FC0
7F1FC0
771FC0
F73BC0
FF3BC0
FF3BC0
FFBBC0
FBBBC0
FBB3C0
FBF3C0
FBF3C0
FBF3C0
F9F3E0
F1F3E0
F1E3E0
F003E0
F003E0
F003E0
F003E0
ENDCHAR
ENDFONT
